<?xml version="1.0" encoding="UTF-8"?>
<svg version="1.1" xmlns="http://www.w3.org/2000/svg" width="1280" height="1520">
<path d="M0 0 C0.87269531 0.40686035 1.74539063 0.8137207 2.64453125 1.23291016 C31.21299317 14.6339763 57.23664029 32.51655442 80.53515625 53.75390625 C82.17892647 55.25179512 83.83265156 56.73883167 85.49609375 58.21484375 C94.23010858 65.96781479 102.44029892 74.09704625 110 83 C111.21429687 84.38058594 111.21429687 84.38058594 112.453125 85.7890625 C119.97147179 94.40485861 126.53369304 103.57702215 133 113 C128.39725773 116.88297187 123.40344932 120.0826283 118.375 123.375 C103.22080506 133.39985926 88.65881451 144.00928784 75 156 C73.90171875 156.94939453 73.90171875 156.94939453 72.78125 157.91796875 C70.84236631 159.59910401 68.91928327 161.29653974 67 163 C66.23429687 163.67289063 65.46859375 164.34578125 64.6796875 165.0390625 C45.23160486 182.29237719 28.10481475 202.15524628 14 224 C13.55591797 224.68610352 13.11183594 225.37220703 12.65429688 226.07910156 C-13.10931531 266.2443876 -27.51287247 309.91575867 -34 357 C-34.18006592 358.26408691 -34.18006592 358.26408691 -34.36376953 359.55371094 C-45.89962364 444.31043339 -22.52765165 533.13401571 28.66259766 601.24414062 C34.07572267 608.35096704 39.88014049 615.08231036 45.8984375 621.6796875 C47.72282794 623.69397731 49.49093802 625.74148614 51.25 627.8125 C58.24879645 635.83909173 65.94106643 643.45354486 74.0625 650.33984375 C76.32288915 652.27666913 78.49850672 654.29539882 80.6875 656.3125 C107.56242282 680.49176187 140.00107538 699.55901187 173 714 C172.41499005 719.33935585 171.13943353 723.95655758 169.26171875 728.9765625 C168.98524506 729.73104172 168.70877136 730.48552094 168.42391968 731.26286316 C167.51999398 733.7200374 166.60473531 736.17276549 165.6875 738.625 C165.37287811 739.47146088 165.05825623 740.31792175 164.73410034 741.19003296 C148.80952781 784.00328273 130.26698253 825.85857074 107.45166016 865.46386719 C105.78994628 868.36697579 104.16985738 871.2913334 102.55419922 874.22021484 C77.92823796 918.7157567 46.93545923 960.49795112 15 1000 C14.02341978 1001.2161316 13.04685875 1002.43227862 12.0703125 1003.6484375 C-3.80898736 1023.37094956 -20.36011825 1043.46108967 -39.640625 1059.9765625 C-41.43661475 1061.51683186 -43.21471882 1063.07798346 -44.984375 1064.6484375 C-76.08495046 1092.09174334 -112.77846372 1111.5367097 -154 1118 C-155.19496094 1118.19207031 -156.38992188 1118.38414063 -157.62109375 1118.58203125 C-196.43015183 1123.14245447 -235.6106601 1113.63665291 -272 1101 C-272.87897949 1100.69513672 -273.75795898 1100.39027344 -274.66357422 1100.07617188 C-283.85090993 1096.85912787 -292.94911033 1093.41792783 -302.01953125 1089.88671875 C-397.09394655 1052.91623231 -484.48819805 1054.28601837 -579.375 1092.3125 C-638.42809687 1115.87791824 -701.31058581 1133.49387603 -762.5625 1107.8125 C-778.14557422 1101.04396285 -792.49754656 1092.27317886 -806 1082 C-806.87132568 1081.34281982 -806.87132568 1081.34281982 -807.76025391 1080.67236328 C-815.2109984 1075.02995328 -822.27436811 1069.10246684 -829.0859375 1062.703125 C-831.22548545 1060.71845049 -833.38151222 1058.81208695 -835.59765625 1056.91796875 C-840.78487384 1052.39939676 -845.62099938 1047.52886027 -850.47290039 1042.6574707 C-852.05959946 1041.06541034 -853.65157742 1039.4787701 -855.24414062 1037.89257812 C-860.70625378 1032.43446028 -866.012776 1026.90029816 -871 1021 C-872.00819247 1019.83513877 -873.01728947 1018.67105972 -874.02734375 1017.5078125 C-879.08821677 1011.63504842 -884.09833698 1005.73873425 -888.90234375 999.65234375 C-890.46590549 997.6753262 -892.04070031 995.71093458 -893.62890625 993.75390625 C-901.4025808 984.15299569 -908.83103055 974.3138895 -916.20556641 964.40429688 C-917.86189496 962.18504196 -919.52765183 959.97341423 -921.19921875 957.765625 C-927.78906011 949.05617554 -934.16056367 940.21492343 -940.4140625 931.26123047 C-942.05747572 928.91805109 -943.71492561 926.58530639 -945.375 924.25390625 C-964.70189252 897.0306752 -981.86887723 868.35919469 -997.48388672 838.86035156 C-998.94886117 836.09648027 -1000.4285227 833.34090465 -1001.91015625 830.5859375 C-1041.59773384 756.26460608 -1069.97927978 675.19565652 -1107.203125 442.296875 C-1107.20736607 441.14512157 -1107.20736607 441.14512157 -1107.21169281 439.9701004 C-1107.22655439 435.88908062 -1107.2358601 431.80809485 -1107.24023438 427.72705078 C-1107.24457132 424.44470818 -1107.25829421 421.16263553 -1107.28125 417.88037109 C-1107.48803811 387.64179225 -1106.00671477 357.65428742 -1101.25 327.75 C-1101.12338989 326.93311707 -1100.99677979 326.11623413 -1100.86633301 325.27459717 C-1093.73958632 279.44428573 -1081.07542075 234.90287821 -1061 193 C-1060.3495874 191.62763184 -1060.3495874 191.62763184 -1059.68603516 190.22753906 C-1048.75957799 167.29622923 -1035.78469764 145.64919148 -1021 125 C-1020.59620117 124.43571289 -1020.19240234 123.87142578 -1019.77636719 123.29003906 C-1010.56185544 110.51736953 -1000.51117067 98.36184014 -989.71484375 86.90234375 C-987.33242716 84.35538616 -985.03129563 81.76205323 -982.75 79.125 C-979.71776951 75.68554847 -976.48785016 72.69422781 -972.98828125 69.73828125 C-970.94701628 67.95367828 -969.07337125 66.0723253 -967.1875 64.125 C-962.45159818 59.33402955 -957.25740499 55.20060676 -952 51 C-950.87514848 50.07431669 -949.75149637 49.14717444 -948.62890625 48.21875 C-933.40705644 35.71092185 -916.98729496 24.94862992 -900 15 C-899.28553711 14.58153809 -898.57107422 14.16307617 -897.83496094 13.73193359 C-869.02443309 -2.99697055 -838.24830201 -15.6232312 -806 -24 C-805.12456543 -24.22880859 -804.24913086 -24.45761719 -803.34716797 -24.69335938 C-716.86017098 -46.83870645 -638.17396207 -27.4567325 -556.41534424 2.4042511 C-497.71501567 26.8334424 -497.71501567 26.8334424 -436.45703125 27.3828125 C-435.44744858 27.11743683 -434.43786591 26.85206116 -433.39768982 26.5786438 C-422.66433944 23.71018056 -412.11038429 20.35589094 -401.5625 16.875 C-400.53972961 16.54006531 -399.51695923 16.20513062 -398.4631958 15.86004639 C-380.8264564 10.07873097 -363.33771798 3.90983946 -345.875 -2.375 C-245.35922284 -38.5392902 -151.66036584 -51.07106581 0 0 Z " fill="#FFFFFF" transform="translate(1107,399)"/>
<path d="M0 0 C1.13904708 5.48922536 1.17758572 10.84594502 1.203125 16.42578125 C1.21018463 17.4374939 1.21724426 18.44920654 1.22451782 19.49157715 C1.45240365 61.79334009 1.45240365 61.79334009 -2 80 C-2.20399414 81.10424316 -2.40798828 82.20848633 -2.61816406 83.34619141 C-11.15782417 128.51191923 -28.72774592 171.21799651 -55 209 C-55.37592285 209.54188965 -55.7518457 210.0837793 -56.13916016 210.64208984 C-71.71919113 233.02044788 -89.4249064 253.44730066 -108.61483765 272.79006958 C-110.01911861 274.20625098 -111.41941491 275.62638008 -112.81958008 277.04663086 C-118.90180582 283.13651202 -125.27556841 288.63542058 -132 294 C-133.03932679 294.87505135 -134.07446158 295.75516139 -135.1015625 296.64453125 C-153.95337991 312.84075209 -175.46632848 326.55056213 -198 337 C-199.03640625 337.49209961 -199.03640625 337.49209961 -200.09375 337.99414062 C-218.61624341 346.76883633 -237.90770208 352.97776367 -258 357 C-258.80824219 357.16516113 -259.61648438 357.33032227 -260.44921875 357.50048828 C-279.39288624 361.18779232 -298.79640031 360.29123518 -318 360 C-318.74775313 354.93755546 -319.27480873 349.92019917 -319.5625 344.8125 C-319.60568359 344.13380859 -319.64886719 343.45511719 -319.69335938 342.75585938 C-324.44680676 261.19273833 -288.03110306 178.7661725 -234.69140625 118.38671875 C-233.16836168 116.69416164 -231.63985661 115.00649941 -230.10546875 113.32421875 C-228.26022445 111.28726075 -226.4691833 109.21729153 -224.6875 107.125 C-217.44769373 98.82447793 -209.47262356 91.03227755 -201 84 C-200.22076172 83.34209473 -200.22076172 83.34209473 -199.42578125 82.67089844 C-148.11573883 39.43114414 -69.59144353 -3.48602778 0 0 Z " fill="#FFFFFF" transform="translate(959,0)"/>
</svg>
